<?xml version="1.0" encoding="UTF-8"?>
<!DOCTYPE svg PUBLIC "-//W3C//DTD SVG 1.1//EN" "http://www.w3.org/Graphics/SVG/1.1/DTD/svg11.dtd">
<!-- Creator: CorelDRAW 2020 (64-Bit) -->
<svg xmlns="http://www.w3.org/2000/svg" xml:space="preserve" width="1280px" height="720px" version="1.1" style="shape-rendering:geometricPrecision; text-rendering:geometricPrecision; image-rendering:optimizeQuality; fill-rule:evenodd; clip-rule:evenodd"
viewBox="0 0 1280 720"
 xmlns:xlink="http://www.w3.org/1999/xlink"
 xmlns:xodm="http://www.corel.com/coreldraw/odm/2003">
 <defs>
  <style type="text/css">
   <![CDATA[
    .fil3 {fill:#F2EB8D}
    .fil1 {fill:#0A7AA6;fill-rule:nonzero}
    .fil0 {fill:#0FBFAE;fill-rule:nonzero}
    .fil2 {fill:#F28D77;fill-rule:nonzero}
    .fil4 {fill:#F2EB8D;fill-rule:nonzero}
   ]]>
  </style>
 </defs>
 <g id="Capa_x0020_1">
  <metadata id="CorelCorpID_0Corel-Layer"/>
  <g id="_1949438568336">
   <path class="fil0" d="M372.51 524.4c5.65,-8.47 17.1,-10.77 25.58,-5.12 8.47,5.65 10.76,17.11 5.11,25.58 -15.46,23.21 -37.36,40.35 -62.17,50.04 -24.81,9.69 -52.53,11.93 -79.62,5.34 -35.6,-8.66 -64.33,-30.95 -82.01,-59.99 -17.67,-29.02 -24.27,-64.75 -15.62,-100.31 8.66,-35.6 30.95,-64.33 59.99,-82.01 29.02,-17.66 64.75,-24.26 100.31,-15.62 9.89,2.39 15.98,12.35 13.59,22.25 -2.39,9.89 -12.35,15.98 -22.25,13.59 -25.77,-6.27 -51.61,-1.51 -72.55,11.24 -20.92,12.73 -37,33.48 -43.25,59.21 -6.27,25.76 -1.52,51.6 11.24,72.55 12.73,20.92 33.48,36.99 59.21,43.25 19.58,4.76 39.61,3.15 57.53,-3.85 17.92,-7 33.74,-19.38 44.91,-36.15z"/>
   <path class="fil1" d="M783.37 183.91c0,9.66 -7.83,17.5 -17.5,17.5 -9.66,0 -17.5,-7.84 -17.5,-17.5 0,-27.01 -10.95,-51.47 -28.64,-69.16 -17.7,-17.7 -42.16,-28.65 -69.17,-28.65 -27.01,0 -51.46,10.95 -69.16,28.65 -17.7,17.69 -28.65,42.15 -28.65,69.16 0,9.66 -7.83,17.5 -17.5,17.5 -9.66,0 -17.5,-7.84 -17.5,-17.5 0,-36.67 14.87,-69.88 38.9,-93.91 24.04,-24.04 57.24,-38.9 93.91,-38.9 36.67,0 69.88,14.86 93.91,38.9 24.04,24.03 38.9,57.24 38.9,93.91z"/>
   <path class="fil2" d="M949.11 399.33c-8.94,-3.58 -13.29,-13.75 -9.7,-22.69 3.58,-8.95 13.74,-13.3 22.69,-9.71 25.04,10.12 45.58,27.53 59.61,49.15 13.94,21.46 21.46,47.07 20.64,73.79l0.05 0c0,0.75 -0.05,1.48 -0.14,2.2 -1.66,34.82 -17.03,65.79 -40.69,87.84 -23.89,22.28 -56.24,35.48 -91.43,34.39l0 0.05c-9.67,0 -17.5,-7.83 -17.5,-17.5 0,-9.66 7.83,-17.5 17.5,-17.5l0 0.06 0.55 0.01c25.82,0.91 49.57,-8.74 67.09,-25.07 17.22,-16.05 28.41,-38.53 29.64,-63.76l-0.02 -0.71 0.05 -0.01 0.02 -0.54c0.69,-19.68 -4.8,-38.51 -15.02,-54.25 -10.21,-15.73 -25.14,-28.39 -43.34,-35.75z"/>
   <path class="fil3" d="M575.34 341.68l75.98 131.59 0.15 0.28 48.54 84.06c11.1,19.24 29.07,32.18 49.08,37.54 20,5.36 42.04,3.14 61.28,-7.97 19.23,-11.1 32.18,-29.08 37.54,-49.08 5.36,-20.01 3.13,-42.04 -7.97,-61.28l-68.63 -118.86c-1.82,-2.94 -3.68,-6.06 -5.58,-9.35 -12.46,-21.57 -14.99,-46.15 -9.01,-68.44 5.97,-22.3 20.45,-42.32 42.03,-54.78 21.57,-12.45 46.14,-14.98 68.44,-9.01 22.3,5.98 42.32,20.46 54.77,42.03 12.46,21.57 14.99,46.15 9.01,68.45 -5.53,20.65 -18.36,39.35 -37.36,51.89 -1.23,0.81 -2.6,1.05 -4.04,0.72 -1.43,-0.35 -2.55,-1.17 -3.28,-2.45l-0.22 -0.38c-1.37,-2.37 -0.66,-5.38 1.63,-6.89 16.71,-11.05 28,-27.51 32.87,-45.68 5.26,-19.63 3.03,-41.28 -7.93,-60.28 -10.97,-18.99 -28.6,-31.74 -48.23,-37.01 -19.64,-5.26 -41.28,-3.03 -60.28,7.94 -18.99,10.97 -31.75,28.6 -37.01,48.23 -4.9,18.31 -3.3,38.36 5.83,56.38 0.12,0.17 0.23,0.34 0.34,0.52l75.97 131.59c12.6,21.81 15.12,46.78 9.05,69.45 -6.07,22.66 -20.75,43.03 -42.56,55.62 -21.81,12.59 -46.78,15.12 -69.45,9.04 -22.66,-6.07 -43.03,-20.74 -55.62,-42.55l-27.21 -47.13c0.29,9.08 -0.77,18.14 -3.11,26.85 -6.07,22.67 -20.75,43.03 -42.56,55.63 -21.81,12.59 -46.78,15.12 -69.45,9.04 -22.66,-6.07 -43.03,-20.75 -55.62,-42.56l-127.23 -220.36c-12.59,-21.81 -15.11,-46.79 -9.04,-69.45 6.07,-22.67 20.75,-43.03 42.56,-55.63 21.81,-12.59 46.78,-15.11 69.45,-9.04 22.66,6.07 43.03,20.75 55.62,42.56l0.35 0.6c1.42,2.47 0.57,5.64 -1.89,7.06l-0.38 0.22c-2.47,1.42 -5.64,0.57 -7.06,-1.89l-0.35 -0.61c-11.1,-19.23 -29.08,-32.18 -49.08,-37.54 -20.01,-5.36 -42.04,-3.13 -61.28,7.97 -19.23,11.11 -32.18,29.08 -37.54,49.08 -5.36,20.01 -3.14,42.05 7.97,61.28l127.23 220.37c11.1,19.23 29.08,32.18 49.08,37.54 20.01,5.36 42.04,3.13 61.28,-7.97 19.23,-11.11 32.18,-29.08 37.54,-49.08 5.34,-19.91 3.15,-41.83 -7.81,-61l-76.14 -131.87 -2.56 -4.44c-12.59,-21.81 -15.12,-46.78 -9.04,-69.45 5.85,-21.84 19.69,-41.55 40.21,-54.22l-1.04 0.6c1.1,-0.7 2.22,-1.38 3.36,-2.04 1.14,-0.66 2.29,-1.29 3.45,-1.89l-1.04 0.6c21.24,-11.43 45.22,-13.57 67.06,-7.72 22.67,6.07 43.03,20.75 55.62,42.56l0.35 0.6c1.43,2.47 0.58,5.64 -1.89,7.06l-0.37 0.22c-2.47,1.42 -5.64,0.57 -7.06,-1.89l-0.35 -0.61c-11.11,-19.23 -29.08,-32.18 -49.08,-37.54 -20.01,-5.36 -42.05,-3.13 -61.28,7.97 -19.24,11.11 -32.18,29.08 -37.54,49.09 -5.36,20 -3.14,42.04 7.97,61.27l2.56 4.44z"/>
   <path class="fil4" d="M583.97 336.68l124.67 215.93c4.77,8.27 10.99,15.21 18.14,20.68 7.44,5.69 15.93,9.81 24.89,12.21 8.98,2.41 18.39,3.09 27.66,1.88 8.92,-1.16 17.77,-4.06 26.04,-8.83l0.51 -0.28c8.01,-4.71 14.78,-10.82 20.16,-17.86 5.69,-7.44 9.82,-15.93 12.22,-24.89 2.41,-8.98 3.08,-18.4 1.88,-27.66 -1.17,-8.95 -4.06,-17.8 -8.82,-26.05l-0.02 0.01 -68.74 -119.06c-0.97,-1.58 -1.84,-3.02 -2.62,-4.32 -0.66,-1.11 -1.61,-2.73 -2.83,-4.84l-0.01 0.01c-6.78,-11.74 -10.91,-24.3 -12.58,-37 -1.74,-13.18 -0.82,-26.45 2.55,-39.02 3.38,-12.6 9.21,-24.56 17.29,-35.09 7.79,-10.15 17.65,-18.96 29.39,-25.74l0.58 -0.31c11.59,-6.6 23.95,-10.63 36.42,-12.27 13.18,-1.74 26.45,-0.81 39.02,2.55 12.6,3.38 24.56,9.21 35.09,17.29 10.15,7.79 18.96,17.65 25.74,29.39l0.31 0.58c6.59,11.59 10.63,23.95 12.27,36.42 1.73,13.18 0.81,26.45 -2.56,39.03 -3.11,11.61 -8.33,22.7 -15.5,32.66 -6.93,9.62 -15.65,18.14 -26,24.97 -0.29,0.19 -0.59,0.37 -0.9,0.52 -1.54,0.9 -3.16,1.5 -4.83,1.79 -2,0.36 -4.03,0.3 -6.08,-0.19 -2.09,-0.49 -3.97,-1.36 -5.62,-2.59 -0.33,-0.24 -0.63,-0.51 -0.92,-0.78 -1.21,-1.07 -2.25,-2.34 -3.1,-3.81l-0.02 0.01 -0.21 -0.38c-0.18,-0.3 -0.34,-0.61 -0.48,-0.93 -1.6,-3.25 -1.95,-6.82 -1.17,-10.1 0.85,-3.62 3.05,-6.94 6.41,-9.17l-0.01 -0.01c7.21,-4.77 13.26,-10.66 18.03,-17.29 4.92,-6.84 8.53,-14.53 10.7,-22.65 2.36,-8.79 3.01,-18 1.81,-27.09 -1.15,-8.75 -4.02,-17.45 -8.73,-25.61l-0.28 -0.52c-4.64,-7.89 -10.64,-14.55 -17.53,-19.84 -7.3,-5.6 -15.6,-9.65 -24.36,-12 -8.79,-2.35 -18,-3 -27.1,-1.81 -8.75,1.16 -17.44,4.02 -25.6,8.73 -8.16,4.71 -14.99,10.81 -20.37,17.82 -5.6,7.3 -9.64,15.6 -11.99,24.36 -2.19,8.17 -2.9,16.71 -2.03,25.18 0.82,7.93 3.04,15.85 6.74,23.38l0.48 0.8 0.23 0.43 75.71 131.12c6.84,11.85 11.01,24.57 12.68,37.43 1.74,13.37 0.8,26.83 -2.62,39.59 -3.43,12.79 -9.34,24.93 -17.52,35.62 -7.87,10.29 -17.83,19.22 -29.69,26.06 -11.86,6.85 -24.58,11.01 -37.43,12.69 -13.37,1.74 -26.84,0.79 -39.6,-2.63 -12.78,-3.42 -24.92,-9.33 -35.61,-17.51 -10.29,-7.87 -19.22,-17.84 -26.06,-29.69l-0.3 -0.56 -12.08 -20.91c-3.47,12.33 -9.26,24.04 -17.17,34.39 -7.87,10.29 -17.84,19.21 -29.7,26.06 -11.85,6.84 -24.57,11.01 -37.43,12.68 -13.37,1.75 -26.84,0.8 -39.59,-2.62 -12.79,-3.43 -24.93,-9.34 -35.62,-17.51 -10.29,-7.87 -19.22,-17.84 -26.06,-29.7l-0.3 -0.55 -126.91 -219.82 -0.02 0.01c-6.85,-11.86 -11.01,-24.58 -12.68,-37.43 -1.74,-13.37 -0.8,-26.84 2.62,-39.6 3.43,-12.79 9.34,-24.93 17.51,-35.61 7.87,-10.29 17.84,-19.22 29.7,-26.07 11.85,-6.84 24.57,-11.01 37.43,-12.68 13.37,-1.74 26.83,-0.8 39.59,2.62 12.79,3.43 24.93,9.34 35.62,17.51 10.19,7.81 19.08,17.71 25.93,29.51 0.49,0.69 0.88,1.42 1.17,2.18 1.48,3.27 1.71,6.85 0.84,10.11 -0.91,3.4 -3.01,6.49 -6.1,8.59 -0.51,0.39 -1.05,0.71 -1.62,0.98 -3.56,1.96 -7.57,2.34 -11.21,1.37 -3.74,-1 -7.1,-3.44 -9.19,-7.05l-0.35 -0.65c-4.75,-8.22 -10.96,-15.14 -18.14,-20.63 -7.44,-5.7 -15.93,-9.82 -24.89,-12.22 -8.99,-2.41 -18.4,-3.08 -27.66,-1.88 -8.95,1.16 -17.8,4.06 -26.05,8.82l0.01 0.01c-8.27,4.78 -15.2,10.99 -20.68,18.15 -5.69,7.44 -9.81,15.92 -12.21,24.88 -2.41,8.99 -3.09,18.4 -1.88,27.67 1.16,8.92 4.06,17.77 8.83,26.03l0.3 0.56 126.92 219.82 0.01 -0.01c4.77,8.27 10.99,15.2 18.14,20.68 7.45,5.69 15.93,9.81 24.89,12.21 8.99,2.41 18.4,3.09 27.66,1.88 8.93,-1.16 17.77,-4.06 26.04,-8.83l0.52 -0.28c8.01,-4.71 14.77,-10.83 20.16,-17.86 5.69,-7.45 9.81,-15.93 12.21,-24.89 2.4,-8.95 3.08,-18.32 1.9,-27.54 -1.13,-8.84 -4,-17.64 -8.73,-25.92l-0.24 -0.44 -75.86 -131.39 -0.3 -0.56 -2.25 -3.89 -0.01 0.01c-6.85,-11.86 -11.01,-24.58 -12.69,-37.43 -1.74,-13.37 -0.79,-26.84 2.63,-39.6 3.29,-12.29 8.89,-24 16.61,-34.4 7,-9.45 15.76,-17.8 26.12,-24.51 0.24,-0.19 0.49,-0.37 0.76,-0.54l-0.02 -0.03c0.39,-0.25 0.26,-0.14 1.86,-1.11l1.86 -1.1 -0.01 -0.02 1.91 -1.08 1.93 -1.05c0.33,-0.17 0.67,-0.32 1.01,-0.45 10.94,-5.56 22.49,-8.94 34.12,-10.28 12.84,-1.47 25.77,-0.46 38.08,2.83 12.79,3.43 24.93,9.34 35.62,17.52 10.19,7.8 19.07,17.7 25.93,29.5 0.48,0.69 0.87,1.42 1.17,2.18 1.48,3.27 1.71,6.85 0.84,10.11 -0.92,3.4 -3.01,6.49 -6.1,8.59 -0.6,0.45 -1.24,0.82 -1.9,1.11 -3.5,1.84 -7.4,2.19 -10.93,1.24 -3.74,-1 -7.11,-3.43 -9.2,-7.05l-0.35 -0.65c-4.74,-8.21 -10.96,-15.14 -18.13,-20.63 -7.45,-5.69 -15.93,-9.82 -24.89,-12.22 -8.99,-2.4 -18.4,-3.08 -27.67,-1.88 -8.94,1.17 -17.79,4.06 -26.04,8.82l0.01 0.02c-8.27,4.77 -15.21,10.98 -20.68,18.14 -5.69,7.44 -9.82,15.93 -12.22,24.88 -2.4,8.99 -3.08,18.4 -1.87,27.67 1.16,8.92 4.06,17.77 8.83,26.03l0.3 0.56 2.25 3.89 0.01 -0.01z"/>
  </g>
 </g>
</svg>
